<mxfile host="app.diagrams.net" modified="2021-10-12T15:10:29.207Z" agent="5.0 (Windows NT 10.0; Win64; x64) AppleWebKit/537.36 (KHTML, like Gecko) Chrome/94.0.4606.71 Safari/537.36" etag="o09dcNtyGD_nXbq4izmF" version="15.5.2" type="github">
  <diagram id="MGFQfvadrxJmqpO3Y-AG" name="Page-1">
    <mxGraphModel dx="1038" dy="556" grid="1" gridSize="10" guides="1" tooltips="1" connect="1" arrows="1" fold="1" page="1" pageScale="1" pageWidth="850" pageHeight="1100" math="0" shadow="0">
      <root>
        <mxCell id="0" />
        <mxCell id="1" parent="0" />
        <mxCell id="RUYIutBtWL2SyRl9xqsH-1" value="&lt;font style=&quot;font-size: 14px&quot;&gt;Open API&lt;/font&gt;" style="rounded=1;whiteSpace=wrap;html=1;fillColor=#f8cecc;strokeColor=#b85450;" vertex="1" parent="1">
          <mxGeometry x="190" y="160" width="120" height="60" as="geometry" />
        </mxCell>
        <mxCell id="RUYIutBtWL2SyRl9xqsH-2" value="&lt;font style=&quot;font-size: 14px&quot;&gt;Account Management Microservice&lt;/font&gt;" style="rounded=1;whiteSpace=wrap;html=1;glass=0;fillColor=#f8cecc;strokeColor=#b85450;" vertex="1" parent="1">
          <mxGeometry x="183" y="308" width="120" height="60" as="geometry" />
        </mxCell>
        <mxCell id="RUYIutBtWL2SyRl9xqsH-3" value="&lt;font style=&quot;font-size: 14px&quot;&gt;Mobile app&lt;/font&gt;" style="rounded=1;whiteSpace=wrap;html=1;fillColor=#f8cecc;strokeColor=#b85450;" vertex="1" parent="1">
          <mxGeometry x="350" y="160" width="120" height="60" as="geometry" />
        </mxCell>
        <mxCell id="RUYIutBtWL2SyRl9xqsH-4" value="&lt;font style=&quot;font-size: 14px&quot;&gt;User &lt;br&gt;Management Microservice&lt;/font&gt;" style="rounded=1;whiteSpace=wrap;html=1;glass=0;fillColor=#f8cecc;strokeColor=#b85450;" vertex="1" parent="1">
          <mxGeometry x="343" y="308" width="120" height="60" as="geometry" />
        </mxCell>
        <mxCell id="RUYIutBtWL2SyRl9xqsH-5" value="&lt;font style=&quot;font-size: 14px&quot;&gt;Web site&lt;/font&gt;" style="rounded=1;whiteSpace=wrap;html=1;fillColor=#f8cecc;strokeColor=#b85450;" vertex="1" parent="1">
          <mxGeometry x="510" y="160" width="120" height="60" as="geometry" />
        </mxCell>
        <mxCell id="RUYIutBtWL2SyRl9xqsH-30" style="edgeStyle=orthogonalEdgeStyle;rounded=0;orthogonalLoop=1;jettySize=auto;html=1;exitX=1;exitY=0.5;exitDx=0;exitDy=0;entryX=0;entryY=0.5;entryDx=0;entryDy=0;fontSize=14;" edge="1" parent="1" source="RUYIutBtWL2SyRl9xqsH-6" target="RUYIutBtWL2SyRl9xqsH-28">
          <mxGeometry relative="1" as="geometry" />
        </mxCell>
        <mxCell id="RUYIutBtWL2SyRl9xqsH-31" style="edgeStyle=orthogonalEdgeStyle;rounded=0;orthogonalLoop=1;jettySize=auto;html=1;exitX=1;exitY=0.5;exitDx=0;exitDy=0;entryX=0;entryY=0.5;entryDx=0;entryDy=0;fontSize=14;" edge="1" parent="1" source="RUYIutBtWL2SyRl9xqsH-6" target="RUYIutBtWL2SyRl9xqsH-29">
          <mxGeometry relative="1" as="geometry" />
        </mxCell>
        <mxCell id="RUYIutBtWL2SyRl9xqsH-6" value="&lt;font style=&quot;font-size: 14px&quot;&gt;Card&lt;br&gt;Management Microservice&lt;/font&gt;" style="rounded=1;whiteSpace=wrap;html=1;glass=0;fillColor=#d5e8d4;strokeColor=#82b366;" vertex="1" parent="1">
          <mxGeometry x="503" y="308" width="120" height="60" as="geometry" />
        </mxCell>
        <mxCell id="RUYIutBtWL2SyRl9xqsH-11" style="edgeStyle=orthogonalEdgeStyle;rounded=0;orthogonalLoop=1;jettySize=auto;html=1;exitX=1;exitY=0.5;exitDx=0;exitDy=0;entryX=0;entryY=0.25;entryDx=0;entryDy=0;" edge="1" parent="1" source="RUYIutBtWL2SyRl9xqsH-7" target="RUYIutBtWL2SyRl9xqsH-1">
          <mxGeometry relative="1" as="geometry" />
        </mxCell>
        <mxCell id="RUYIutBtWL2SyRl9xqsH-7" value="&lt;font style=&quot;font-size: 14px&quot;&gt;DUNZO&lt;/font&gt;" style="whiteSpace=wrap;html=1;aspect=fixed;" vertex="1" parent="1">
          <mxGeometry x="40" y="90" width="80" height="80" as="geometry" />
        </mxCell>
        <mxCell id="RUYIutBtWL2SyRl9xqsH-10" style="edgeStyle=orthogonalEdgeStyle;rounded=0;orthogonalLoop=1;jettySize=auto;html=1;exitX=1;exitY=0.5;exitDx=0;exitDy=0;entryX=0;entryY=0.5;entryDx=0;entryDy=0;" edge="1" parent="1" source="RUYIutBtWL2SyRl9xqsH-8" target="RUYIutBtWL2SyRl9xqsH-1">
          <mxGeometry relative="1" as="geometry">
            <mxPoint x="180" y="200" as="targetPoint" />
          </mxGeometry>
        </mxCell>
        <mxCell id="RUYIutBtWL2SyRl9xqsH-8" value="&lt;font style=&quot;font-size: 14px&quot;&gt;EPL&lt;/font&gt;" style="whiteSpace=wrap;html=1;aspect=fixed;" vertex="1" parent="1">
          <mxGeometry x="40" y="200" width="80" height="80" as="geometry" />
        </mxCell>
        <mxCell id="RUYIutBtWL2SyRl9xqsH-17" style="edgeStyle=orthogonalEdgeStyle;rounded=0;orthogonalLoop=1;jettySize=auto;html=1;exitX=1;exitY=0.5;exitDx=0;exitDy=0;entryX=0.5;entryY=0;entryDx=0;entryDy=0;" edge="1" parent="1" source="RUYIutBtWL2SyRl9xqsH-15" target="RUYIutBtWL2SyRl9xqsH-5">
          <mxGeometry relative="1" as="geometry" />
        </mxCell>
        <mxCell id="RUYIutBtWL2SyRl9xqsH-18" style="edgeStyle=orthogonalEdgeStyle;rounded=0;orthogonalLoop=1;jettySize=auto;html=1;exitX=0;exitY=0.5;exitDx=0;exitDy=0;" edge="1" parent="1" source="RUYIutBtWL2SyRl9xqsH-15" target="RUYIutBtWL2SyRl9xqsH-3">
          <mxGeometry relative="1" as="geometry" />
        </mxCell>
        <mxCell id="RUYIutBtWL2SyRl9xqsH-15" value="&lt;font style=&quot;font-size: 14px&quot;&gt;Customers&lt;/font&gt;" style="whiteSpace=wrap;html=1;aspect=fixed;" vertex="1" parent="1">
          <mxGeometry x="449" y="21" width="80" height="80" as="geometry" />
        </mxCell>
        <mxCell id="RUYIutBtWL2SyRl9xqsH-19" value="" style="rounded=0;whiteSpace=wrap;html=1;opacity=30;strokeWidth=3;" vertex="1" parent="1">
          <mxGeometry x="156.5" y="283" width="490" height="147" as="geometry" />
        </mxCell>
        <mxCell id="RUYIutBtWL2SyRl9xqsH-24" value="&lt;font style=&quot;font-size: 15px&quot;&gt;Microservices&lt;/font&gt;" style="text;html=1;strokeColor=none;fillColor=none;align=center;verticalAlign=middle;whiteSpace=wrap;rounded=0;glass=0;opacity=30;" vertex="1" parent="1">
          <mxGeometry x="356" y="390" width="93" height="30" as="geometry" />
        </mxCell>
        <mxCell id="RUYIutBtWL2SyRl9xqsH-25" value="" style="endArrow=classic;startArrow=classic;html=1;rounded=0;" edge="1" parent="1">
          <mxGeometry width="50" height="50" relative="1" as="geometry">
            <mxPoint x="253" y="280" as="sourcePoint" />
            <mxPoint x="253" y="220" as="targetPoint" />
          </mxGeometry>
        </mxCell>
        <mxCell id="RUYIutBtWL2SyRl9xqsH-26" value="" style="endArrow=classic;startArrow=classic;html=1;rounded=0;" edge="1" parent="1">
          <mxGeometry width="50" height="50" relative="1" as="geometry">
            <mxPoint x="407" y="283" as="sourcePoint" />
            <mxPoint x="407" y="223" as="targetPoint" />
          </mxGeometry>
        </mxCell>
        <mxCell id="RUYIutBtWL2SyRl9xqsH-27" value="" style="endArrow=classic;startArrow=classic;html=1;rounded=0;" edge="1" parent="1">
          <mxGeometry width="50" height="50" relative="1" as="geometry">
            <mxPoint x="570" y="282" as="sourcePoint" />
            <mxPoint x="570" y="222" as="targetPoint" />
          </mxGeometry>
        </mxCell>
        <mxCell id="RUYIutBtWL2SyRl9xqsH-28" value="YBL&lt;br&gt;API" style="ellipse;whiteSpace=wrap;html=1;glass=0;fontSize=14;strokeWidth=3;fillColor=#d5e8d4;strokeColor=#82b366;" vertex="1" parent="1">
          <mxGeometry x="707" y="250" width="120" height="80" as="geometry" />
        </mxCell>
        <mxCell id="RUYIutBtWL2SyRl9xqsH-29" value="FIS&lt;br&gt;API" style="ellipse;whiteSpace=wrap;html=1;glass=0;fontSize=14;strokeWidth=3;fillColor=#d5e8d4;strokeColor=#82b366;" vertex="1" parent="1">
          <mxGeometry x="707" y="350" width="120" height="80" as="geometry" />
        </mxCell>
      </root>
    </mxGraphModel>
  </diagram>
</mxfile>
